{
    "asset" : {
        "generator" : "Khronos glTF Blender I/O v1.4.40",
        "version" : "2.0"
    },
    "scene" : 0,
    "scenes" : [
        {
            "name" : "Scene",
            "nodes" : [
                4
            ]
        }
    ],
    "nodes" : [
        {
            "name" : "Bone.003",
            "translation" : [
                0,
                1.123152256011963,
                0
            ]
        },
        {
            "children" : [
                0
            ],
            "name" : "Bone.001",
            "translation" : [
                0,
                3.4961609840393066,
                0
            ]
        },
        {
            "children" : [
                1
            ],
            "name" : "Bone.002",
            "rotation" : [
                0,
                1.1920928955078125e-07,
                0,
                1
            ],
            "translation" : [
                0,
                -0.1269802749156952,
                0
            ]
        },
        {
            "mesh" : 0,
            "name" : "Cylinder",
            "skin" : 0
        },
        {
            "children" : [
                3,
                2
            ],
            "name" : "Armature"
        }
    ],
    "materials" : [
        {
            "doubleSided" : true,
            "name" : "Material.001",
            "pbrMetallicRoughness" : {
                "baseColorFactor" : [
                    1,
                    0.923329770565033,
                    0.7594385743141174,
                    1
                ],
                "metallicFactor" : 0,
                "roughnessFactor" : 0.6486486196517944
            }
        },
        {
            "doubleSided" : true,
            "name" : "Material.004",
            "pbrMetallicRoughness" : {
                "baseColorFactor" : [
                    0.8000000715255737,
                    0,
                    0.005762376356869936,
                    1
                ],
                "metallicFactor" : 0,
                "roughnessFactor" : 0.5
            }
        },
        {
            "doubleSided" : true,
            "name" : "Material.005",
            "pbrMetallicRoughness" : {
                "baseColorFactor" : [
                    0.8000000715255737,
                    0.4830991327762604,
                    0.4167545437812805,
                    1
                ],
                "metallicFactor" : 0,
                "roughnessFactor" : 0.5
            }
        }
    ],
    "meshes" : [
        {
            "name" : "Cylinder",
            "primitives" : [
                {
                    "attributes" : {
                        "POSITION" : 0,
                        "NORMAL" : 1,
                        "TEXCOORD_0" : 2,
                        "JOINTS_0" : 3,
                        "WEIGHTS_0" : 4
                    },
                    "indices" : 5,
                    "material" : 0
                },
                {
                    "attributes" : {
                        "POSITION" : 6,
                        "NORMAL" : 7,
                        "TEXCOORD_0" : 8,
                        "JOINTS_0" : 9,
                        "WEIGHTS_0" : 10
                    },
                    "indices" : 11,
                    "material" : 1
                },
                {
                    "attributes" : {
                        "POSITION" : 12,
                        "NORMAL" : 13,
                        "TEXCOORD_0" : 14,
                        "JOINTS_0" : 15,
                        "WEIGHTS_0" : 16
                    },
                    "indices" : 17,
                    "material" : 2
                }
            ]
        }
    ],
    "skins" : [
        {
            "inverseBindMatrices" : 18,
            "joints" : [
                2,
                1,
                0
            ],
            "name" : "Armature"
        }
    ],
    "accessors" : [
        {
            "bufferView" : 0,
            "componentType" : 5126,
            "count" : 1184,
            "max" : [
                0.16593286395072937,
                5.628452301025391,
                0.16593313217163086
            ],
            "min" : [
                -0.16593340039253235,
                -0.14990341663360596,
                -0.16593313217163086
            ],
            "type" : "VEC3"
        },
        {
            "bufferView" : 1,
            "componentType" : 5126,
            "count" : 1184,
            "type" : "VEC3"
        },
        {
            "bufferView" : 2,
            "componentType" : 5126,
            "count" : 1184,
            "type" : "VEC2"
        },
        {
            "bufferView" : 3,
            "componentType" : 5121,
            "count" : 1184,
            "type" : "VEC4"
        },
        {
            "bufferView" : 4,
            "componentType" : 5126,
            "count" : 1184,
            "type" : "VEC4"
        },
        {
            "bufferView" : 5,
            "componentType" : 5123,
            "count" : 3444,
            "type" : "SCALAR"
        },
        {
            "bufferView" : 6,
            "componentType" : 5126,
            "count" : 560,
            "max" : [
                0.16593286395072937,
                5.628452301025391,
                0.16593313217163086
            ],
            "min" : [
                -0.16593340039253235,
                -0.14990341663360596,
                -0.16593313217163086
            ],
            "type" : "VEC3"
        },
        {
            "bufferView" : 7,
            "componentType" : 5126,
            "count" : 560,
            "type" : "VEC3"
        },
        {
            "bufferView" : 8,
            "componentType" : 5126,
            "count" : 560,
            "type" : "VEC2"
        },
        {
            "bufferView" : 9,
            "componentType" : 5121,
            "count" : 560,
            "type" : "VEC4"
        },
        {
            "bufferView" : 10,
            "componentType" : 5126,
            "count" : 560,
            "type" : "VEC4"
        },
        {
            "bufferView" : 11,
            "componentType" : 5123,
            "count" : 1632,
            "type" : "SCALAR"
        },
        {
            "bufferView" : 12,
            "componentType" : 5126,
            "count" : 560,
            "max" : [
                0.16274452209472656,
                5.628452301025391,
                0.16274476051330566
            ],
            "min" : [
                -0.16274507343769073,
                -0.14990341663360596,
                -0.16274482011795044
            ],
            "type" : "VEC3"
        },
        {
            "bufferView" : 13,
            "componentType" : 5126,
            "count" : 560,
            "type" : "VEC3"
        },
        {
            "bufferView" : 14,
            "componentType" : 5126,
            "count" : 560,
            "type" : "VEC2"
        },
        {
            "bufferView" : 15,
            "componentType" : 5121,
            "count" : 560,
            "type" : "VEC4"
        },
        {
            "bufferView" : 16,
            "componentType" : 5126,
            "count" : 560,
            "type" : "VEC4"
        },
        {
            "bufferView" : 17,
            "componentType" : 5123,
            "count" : 1632,
            "type" : "SCALAR"
        },
        {
            "bufferView" : 18,
            "componentType" : 5126,
            "count" : 3,
            "type" : "MAT4"
        }
    ],
    "bufferViews" : [
        {
            "buffer" : 0,
            "byteLength" : 14208,
            "byteOffset" : 0
        },
        {
            "buffer" : 0,
            "byteLength" : 14208,
            "byteOffset" : 14208
        },
        {
            "buffer" : 0,
            "byteLength" : 9472,
            "byteOffset" : 28416
        },
        {
            "buffer" : 0,
            "byteLength" : 4736,
            "byteOffset" : 37888
        },
        {
            "buffer" : 0,
            "byteLength" : 18944,
            "byteOffset" : 42624
        },
        {
            "buffer" : 0,
            "byteLength" : 6888,
            "byteOffset" : 61568
        },
        {
            "buffer" : 0,
            "byteLength" : 6720,
            "byteOffset" : 68456
        },
        {
            "buffer" : 0,
            "byteLength" : 6720,
            "byteOffset" : 75176
        },
        {
            "buffer" : 0,
            "byteLength" : 4480,
            "byteOffset" : 81896
        },
        {
            "buffer" : 0,
            "byteLength" : 2240,
            "byteOffset" : 86376
        },
        {
            "buffer" : 0,
            "byteLength" : 8960,
            "byteOffset" : 88616
        },
        {
            "buffer" : 0,
            "byteLength" : 3264,
            "byteOffset" : 97576
        },
        {
            "buffer" : 0,
            "byteLength" : 6720,
            "byteOffset" : 100840
        },
        {
            "buffer" : 0,
            "byteLength" : 6720,
            "byteOffset" : 107560
        },
        {
            "buffer" : 0,
            "byteLength" : 4480,
            "byteOffset" : 114280
        },
        {
            "buffer" : 0,
            "byteLength" : 2240,
            "byteOffset" : 118760
        },
        {
            "buffer" : 0,
            "byteLength" : 8960,
            "byteOffset" : 121000
        },
        {
            "buffer" : 0,
            "byteLength" : 3264,
            "byteOffset" : 129960
        },
        {
            "buffer" : 0,
            "byteLength" : 192,
            "byteOffset" : 133224
        }
    ],
    "buffers" : [
        {
            "byteLength" : 133416,
            "uri" : "data:application/octet-stream;base64,"
        }
    ]
}
