{
    "asset" : {
        "generator" : "Khronos glTF Blender I/O v1.4.40",
        "version" : "2.0"
    },
    "scene" : 0,
    "scenes" : [
        {
            "name" : "Scene",
            "nodes" : [
                0,
                1,
                2,
                3
            ]
        }
    ],
    "nodes" : [
        {
            "name" : "Light",
            "rotation" : [
                0.16907575726509094,
                0.7558803558349609,
                -0.27217137813568115,
                0.570947527885437
            ],
            "translation" : [
                4.076245307922363,
                5.903861999511719,
                -1.0054539442062378
            ]
        },
        {
            "name" : "Camera",
            "rotation" : [
                0.483536034822464,
                0.33687159419059753,
                -0.20870360732078552,
                0.7804827094078064
            ],
            "translation" : [
                7.358891487121582,
                4.958309173583984,
                6.925790786743164
            ]
        },
        {
            "mesh" : 0,
            "name" : "Curve",
            "rotation" : [
                0.7071068286895752,
                0,
                0,
                0.7071068286895752
            ],
            "scale" : [
                14.418961524963379,
                14.418961524963379,
                14.418961524963379
            ]
        },
        {
            "mesh" : 1,
            "name" : "Curve.001",
            "rotation" : [
                0.7071068286895752,
                0,
                0,
                0.7071068286895752
            ],
            "scale" : [
                14.418961524963379,
                14.418961524963379,
                14.418961524963379
            ]
        }
    ],
    "materials" : [
        {
            "doubleSided" : true,
            "name" : "SVGMat",
            "pbrMetallicRoughness" : {
                "baseColorFactor" : [
                    1,
                    0.12509557604789734,
                    0.2316778302192688,
                    1
                ],
                "metallicFactor" : 0,
                "roughnessFactor" : 0.4000000059604645
            }
        }
    ],
    "meshes" : [
        {
            "name" : "Curve",
            "primitives" : [
                {
                    "attributes" : {
                        "POSITION" : 0,
                        "NORMAL" : 1,
                        "TEXCOORD_0" : 2
                    },
                    "indices" : 3,
                    "material" : 0
                }
            ]
        },
        {
            "name" : "Curve.001",
            "primitives" : [
                {
                    "attributes" : {
                        "POSITION" : 4,
                        "NORMAL" : 5,
                        "TEXCOORD_0" : 6
                    },
                    "indices" : 7,
                    "material" : 0
                }
            ]
        }
    ],
    "accessors" : [
        {
            "bufferView" : 0,
            "componentType" : 5126,
            "count" : 1135,
            "max" : [
                0.13854572176933289,
                0.019999999552965164,
                -0.0001410841941833496
            ],
            "min" : [
                0.0001411139965057373,
                -0.019999999552965164,
                -0.13851645588874817
            ],
            "type" : "VEC3"
        },
        {
            "bufferView" : 1,
            "componentType" : 5126,
            "count" : 1135,
            "type" : "VEC3"
        },
        {
            "bufferView" : 2,
            "componentType" : 5126,
            "count" : 1135,
            "type" : "VEC2"
        },
        {
            "bufferView" : 3,
            "componentType" : 5123,
            "count" : 2184,
            "type" : "SCALAR"
        },
        {
            "bufferView" : 4,
            "componentType" : 5126,
            "count" : 278,
            "max" : [
                0.10187019407749176,
                0.019999999552965164,
                -0.03680885583162308
            ],
            "min" : [
                0.03681664168834686,
                -0.019999999552965164,
                -0.10184867680072784
            ],
            "type" : "VEC3"
        },
        {
            "bufferView" : 5,
            "componentType" : 5126,
            "count" : 278,
            "type" : "VEC3"
        },
        {
            "bufferView" : 6,
            "componentType" : 5126,
            "count" : 278,
            "type" : "VEC2"
        },
        {
            "bufferView" : 7,
            "componentType" : 5123,
            "count" : 564,
            "type" : "SCALAR"
        }
    ],
    "bufferViews" : [
        {
            "buffer" : 0,
            "byteLength" : 13620,
            "byteOffset" : 0
        },
        {
            "buffer" : 0,
            "byteLength" : 13620,
            "byteOffset" : 13620
        },
        {
            "buffer" : 0,
            "byteLength" : 9080,
            "byteOffset" : 27240
        },
        {
            "buffer" : 0,
            "byteLength" : 4368,
            "byteOffset" : 36320
        },
        {
            "buffer" : 0,
            "byteLength" : 3336,
            "byteOffset" : 40688
        },
        {
            "buffer" : 0,
            "byteLength" : 3336,
            "byteOffset" : 44024
        },
        {
            "buffer" : 0,
            "byteLength" : 2224,
            "byteOffset" : 47360
        },
        {
            "buffer" : 0,
            "byteLength" : 1128,
            "byteOffset" : 49584
        }
    ],
    "buffers" : [
        {
            "byteLength" : 50712,
            "uri" : "data:application/octet-stream;base64,"
        }
    ]
}
