{
    "asset" : {
        "generator" : "Khronos glTF Blender I/O v1.4.40",
        "version" : "2.0"
    },
    "scene" : 0,
    "scenes" : [
        {
            "name" : "Scene",
            "nodes" : [
                23
            ]
        }
    ],
    "nodes" : [
        {
            "name" : "upperleaf.001",
            "rotation" : [
                0.0627492219209671,
                0.10862037539482117,
                0.4380486011505127,
                0.8901559114456177
            ],
            "scale" : [
                0.9999999403953552,
                0.9999999403953552,
                0.9999998807907104
            ],
            "translation" : [
                6.586290623999957e-08,
                0.38402891159057617,
                3.0091655389696825e-08
            ]
        },
        {
            "children" : [
                0
            ],
            "name" : "upperleaf",
            "rotation" : [
                -0.025846952572464943,
                -0.0014773422153666615,
                0.12305115908384323,
                0.9920625686645508
            ],
            "translation" : [
                6.102028038412755e-08,
                0.8218090534210205,
                -1.2255561010476868e-08
            ]
        },
        {
            "children" : [
                1
            ],
            "name" : "lowerleaf",
            "rotation" : [
                0.03611631318926811,
                -0.00038951507303863764,
                -0.0958084762096405,
                0.9947443008422852
            ],
            "scale" : [
                0.9999999403953552,
                0.9999999403953552,
                0.9999999403953552
            ],
            "translation" : [
                2.6256619989339924e-08,
                0.9042498469352722,
                -2.1063930599751757e-09
            ]
        },
        {
            "children" : [
                2
            ],
            "name" : "head",
            "rotation" : [
                -0.012915810570120811,
                0.003920427989214659,
                -0.03280290588736534,
                0.9993706941604614
            ],
            "scale" : [
                1.0000001192092896,
                1.0000001192092896,
                1
            ],
            "translation" : [
                -5.6313189666923336e-09,
                0.5314454436302185,
                1.8979489091464075e-09
            ]
        },
        {
            "children" : [
                3
            ],
            "name" : "neck",
            "rotation" : [
                -0.005918818060308695,
                -0.0005099084810353816,
                0.04548811540007591,
                0.9989472031593323
            ],
            "scale" : [
                1,
                1.0000001192092896,
                1
            ],
            "translation" : [
                0.04940996319055557,
                0.4259990453720093,
                -0.006462170276790857
            ]
        },
        {
            "name" : "lefthand",
            "rotation" : [
                -0.1365499496459961,
                0.07897596806287766,
                -0.03192104399204254,
                0.9869640469551086
            ],
            "scale" : [
                1.0000001192092896,
                1.0000001192092896,
                1
            ],
            "translation" : [
                4.588658697457504e-08,
                0.26726213097572327,
                1.7278250652452698e-07
            ]
        },
        {
            "children" : [
                5
            ],
            "name" : "leftshoulder",
            "rotation" : [
                -0.42489007115364075,
                -0.00307975965552032,
                0.04464125633239746,
                0.9041383266448975
            ],
            "scale" : [
                0.9999999403953552,
                1,
                0.9999999403953552
            ],
            "translation" : [
                -1.2690493988998242e-08,
                0.7634178996086121,
                2.486240546772933e-08
            ]
        },
        {
            "children" : [
                6
            ],
            "name" : "leftcollarbone",
            "rotation" : [
                -0.6989538669586182,
                0.04560631886124611,
                0.044751353561878204,
                0.7123067378997803
            ],
            "scale" : [
                0.9999999403953552,
                0.9999998807907104,
                1
            ],
            "translation" : [
                0.04940996691584587,
                0.4259990155696869,
                -0.00646216981112957
            ]
        },
        {
            "name" : "rightarm",
            "rotation" : [
                -0.02856268547475338,
                0.10204849392175674,
                -0.042997729033231735,
                0.9934393167495728
            ],
            "translation" : [
                -7.058527540237947e-09,
                0.29251033067703247,
                -2.4883076932269432e-08
            ]
        },
        {
            "children" : [
                8
            ],
            "name" : "rightshoulder",
            "rotation" : [
                -0.511842668056488,
                -0.044579412788152695,
                -0.024592705070972443,
                0.8575692176818848
            ],
            "scale" : [
                0.9999997615814209,
                0.9999998807907104,
                0.9999999403953552
            ],
            "translation" : [
                -1.1287307088991838e-08,
                0.824445903301239,
                1.2077284061717819e-08
            ]
        },
        {
            "children" : [
                9
            ],
            "name" : "rightcollarbone",
            "rotation" : [
                -0.009932332672178745,
                -0.7091122269630432,
                -0.7049428224563599,
                0.01081120502203703
            ],
            "scale" : [
                1.0000807046890259,
                1,
                1.0000025033950806
            ],
            "translation" : [
                0.04940996691584587,
                0.4259990155696869,
                -0.006462170276790857
            ]
        },
        {
            "name" : "leftleg",
            "rotation" : [
                -0.009567495435476303,
                -0.025806043297052383,
                0.1900603026151657,
                0.9813866019248962
            ],
            "scale" : [
                1,
                0.9999999403953552,
                0.9999998807907104
            ],
            "translation" : [
                1.4523244828978932e-09,
                0.41250815987586975,
                -7.686034919629492e-09
            ]
        },
        {
            "children" : [
                11
            ],
            "name" : "leftthigh",
            "rotation" : [
                0.06688667088747025,
                0.05462315306067467,
                -0.3315264582633972,
                0.9394853711128235
            ],
            "scale" : [
                0.9999999403953552,
                1.000000238418579,
                0.9999998807907104
            ],
            "translation" : [
                -1.6223644649926428e-08,
                0.3160170912742615,
                4.207675985412607e-09
            ]
        },
        {
            "name" : "rightleg",
            "rotation" : [
                0.039755042642354965,
                0.019448677077889442,
                -0.23321624100208282,
                0.971417248249054
            ],
            "scale" : [
                1.0000001192092896,
                1.0000001192092896,
                1
            ],
            "translation" : [
                9.116693888699956e-08,
                0.44365206360816956,
                1.1834011104383535e-08
            ]
        },
        {
            "children" : [
                13
            ],
            "name" : "rightthigh",
            "rotation" : [
                -0.046316441148519516,
                -0.030933773145079613,
                0.3302519619464874,
                0.9422481656074524
            ],
            "scale" : [
                0.9999998807907104,
                0.9999999403953552,
                0.9999998807907104
            ],
            "translation" : [
                6.22936653371653e-08,
                0.3160170912742615,
                6.780250139115651e-09
            ]
        },
        {
            "children" : [
                12,
                14
            ],
            "name" : "spine1",
            "rotation" : [
                -0.019977500662207603,
                -0.003786432323977351,
                0.014082791283726692,
                0.9996940493583679
            ],
            "scale" : [
                1,
                0.9999998807907104,
                1
            ],
            "translation" : [
                2.2308259683967435e-09,
                0.35759347677230835,
                1.7886958580959345e-09
            ]
        },
        {
            "children" : [
                15
            ],
            "name" : "spine2",
            "rotation" : [
                -0.048074088990688324,
                -7.249842326473299e-08,
                -0.010841780342161655,
                0.9987849593162537
            ],
            "scale" : [
                0.9999998211860657,
                0.9999999403953552,
                0.9999999403953552
            ],
            "translation" : [
                -8.970552078935157e-10,
                0.3600079119205475,
                -4.424753008436255e-09
            ]
        },
        {
            "children" : [
                16
            ],
            "name" : "spine3",
            "rotation" : [
                -0.7485620975494385,
                0.0397685244679451,
                0.6603339314460754,
                0.04508202150464058
            ],
            "scale" : [
                1,
                0.9999999403953552,
                1
            ],
            "translation" : [
                0.04940996319055557,
                0.4259989857673645,
                -0.006462170276790857
            ]
        },
        {
            "mesh" : 0,
            "name" : "leaf",
            "skin" : 0
        },
        {
            "children" : [
                18
            ],
            "mesh" : 1,
            "name" : "head",
            "skin" : 0
        },
        {
            "mesh" : 2,
            "name" : "necklace",
            "rotation" : [
                0,
                0,
                -0.05756402760744095,
                0.9983419179916382
            ],
            "scale" : [
                0.9916545152664185,
                0.9916545152664185,
                0.9916545152664185
            ],
            "translation" : [
                -0.04999999701976776,
                0.9700000286102295,
                0
            ]
        },
        {
            "children" : [
                19,
                20
            ],
            "mesh" : 3,
            "name" : "outerbody"
        },
        {
            "children" : [
                21
            ],
            "mesh" : 4,
            "name" : "innerbody",
            "skin" : 0
        },
        {
            "children" : [
                22,
                4,
                7,
                10,
                17
            ],
            "name" : "Armature"
        }
    ],
    "materials" : [
        {
            "doubleSided" : true,
            "name" : "Material.002",
            "pbrMetallicRoughness" : {
                "baseColorFactor" : [
                    0.27995046973228455,
                    0.8000000715255737,
                    0,
                    1
                ],
                "metallicFactor" : 0,
                "roughnessFactor" : 0.7297297120094299
            }
        },
        {
            "doubleSided" : true,
            "name" : "Material.001",
            "pbrMetallicRoughness" : {
                "baseColorFactor" : [
                    0.8000000715255737,
                    0.015257744118571281,
                    0,
                    1
                ],
                "metallicFactor" : 0,
                "roughnessFactor" : 0.3108108341693878
            }
        }
    ],
    "meshes" : [
        {
            "name" : "Circle",
            "primitives" : [
                {
                    "attributes" : {
                        "POSITION" : 0,
                        "NORMAL" : 1,
                        "TEXCOORD_0" : 2,
                        "JOINTS_0" : 3,
                        "WEIGHTS_0" : 4
                    },
                    "indices" : 5,
                    "material" : 0
                }
            ]
        },
        {
            "name" : "Sphere.002",
            "primitives" : [
                {
                    "attributes" : {
                        "POSITION" : 7,
                        "NORMAL" : 8,
                        "TEXCOORD_0" : 9,
                        "JOINTS_0" : 10,
                        "WEIGHTS_0" : 11
                    },
                    "indices" : 12,
                    "material" : 1
                }
            ]
        },
        {
            "name" : "Circle.002",
            "primitives" : [
                {
                    "attributes" : {
                        "POSITION" : 13,
                        "NORMAL" : 14,
                        "TEXCOORD_0" : 15
                    },
                    "indices" : 16,
                    "material" : 0
                }
            ]
        },
        {
            "name" : "Sphere.001",
            "primitives" : [
                {
                    "attributes" : {
                        "POSITION" : 17,
                        "NORMAL" : 18,
                        "TEXCOORD_0" : 19
                    },
                    "indices" : 20,
                    "material" : 1
                }
            ]
        },
        {
            "name" : "Sphere",
            "primitives" : [
                {
                    "attributes" : {
                        "POSITION" : 21,
                        "NORMAL" : 22,
                        "TEXCOORD_0" : 23,
                        "JOINTS_0" : 24,
                        "WEIGHTS_0" : 25
                    },
                    "indices" : 26,
                    "material" : 1
                }
            ]
        }
    ],
    "skins" : [
        {
            "inverseBindMatrices" : 6,
            "joints" : [
                4,
                3,
                2,
                1,
                0,
                7,
                6,
                5,
                10,
                9,
                8,
                17,
                16,
                15,
                12,
                11,
                14,
                13
            ],
            "name" : "Armature"
        }
    ],
    "accessors" : [
        {
            "bufferView" : 0,
            "componentType" : 5126,
            "count" : 108,
            "max" : [
                0.1399122178554535,
                3.5790836811065674,
                0.27015846967697144
            ],
            "min" : [
                -0.06945090740919113,
                1.7066550254821777,
                -0.34616976976394653
            ],
            "type" : "VEC3"
        },
        {
            "bufferView" : 1,
            "componentType" : 5126,
            "count" : 108,
            "type" : "VEC3"
        },
        {
            "bufferView" : 2,
            "componentType" : 5126,
            "count" : 108,
            "type" : "VEC2"
        },
        {
            "bufferView" : 3,
            "componentType" : 5121,
            "count" : 108,
            "type" : "VEC4"
        },
        {
            "bufferView" : 4,
            "componentType" : 5126,
            "count" : 108,
            "type" : "VEC4"
        },
        {
            "bufferView" : 5,
            "componentType" : 5123,
            "count" : 204,
            "type" : "SCALAR"
        },
        {
            "bufferView" : 6,
            "componentType" : 5126,
            "count" : 18,
            "type" : "MAT4"
        },
        {
            "bufferView" : 7,
            "componentType" : 5126,
            "count" : 559,
            "max" : [
                0.5102581977844238,
                1.859933853149414,
                0.46790096163749695
            ],
            "min" : [
                -0.4797188639640808,
                0.869956910610199,
                -0.5220762491226196
            ],
            "type" : "VEC3"
        },
        {
            "bufferView" : 8,
            "componentType" : 5126,
            "count" : 559,
            "type" : "VEC3"
        },
        {
            "bufferView" : 9,
            "componentType" : 5126,
            "count" : 559,
            "type" : "VEC2"
        },
        {
            "bufferView" : 10,
            "componentType" : 5121,
            "count" : 559,
            "type" : "VEC4"
        },
        {
            "bufferView" : 11,
            "componentType" : 5126,
            "count" : 559,
            "type" : "VEC4"
        },
        {
            "bufferView" : 12,
            "componentType" : 5123,
            "count" : 2880,
            "type" : "SCALAR"
        },
        {
            "bufferView" : 13,
            "componentType" : 5126,
            "count" : 96,
            "max" : [
                0.8845850825309753,
                0.048187293112277985,
                0.8995839953422546
            ],
            "min" : [
                -0.8965467810630798,
                -0.37181800603866577,
                -0.9250441789627075
            ],
            "type" : "VEC3"
        },
        {
            "bufferView" : 14,
            "componentType" : 5126,
            "count" : 96,
            "type" : "VEC3"
        },
        {
            "bufferView" : 15,
            "componentType" : 5126,
            "count" : 96,
            "type" : "VEC2"
        },
        {
            "bufferView" : 16,
            "componentType" : 5123,
            "count" : 180,
            "type" : "SCALAR"
        },
        {
            "bufferView" : 17,
            "componentType" : 5126,
            "count" : 559,
            "max" : [
                1.000000238418579,
                1,
                1.0000003576278687
            ],
            "min" : [
                -0.9999998211860657,
                -1,
                -1
            ],
            "type" : "VEC3"
        },
        {
            "bufferView" : 18,
            "componentType" : 5126,
            "count" : 559,
            "type" : "VEC3"
        },
        {
            "bufferView" : 19,
            "componentType" : 5126,
            "count" : 559,
            "type" : "VEC2"
        },
        {
            "bufferView" : 20,
            "componentType" : 5123,
            "count" : 2880,
            "type" : "SCALAR"
        },
        {
            "bufferView" : 21,
            "componentType" : 5126,
            "count" : 625,
            "max" : [
                0.7158619165420532,
                0.9919167160987854,
                2.9021096229553223
            ],
            "min" : [
                -0.6657289862632751,
                -1.6828367710113525,
                -2.5731685161590576
            ],
            "type" : "VEC3"
        },
        {
            "bufferView" : 22,
            "componentType" : 5126,
            "count" : 625,
            "type" : "VEC3"
        },
        {
            "bufferView" : 23,
            "componentType" : 5126,
            "count" : 625,
            "type" : "VEC2"
        },
        {
            "bufferView" : 24,
            "componentType" : 5121,
            "count" : 625,
            "type" : "VEC4"
        },
        {
            "bufferView" : 25,
            "componentType" : 5126,
            "count" : 625,
            "type" : "VEC4"
        },
        {
            "bufferView" : 26,
            "componentType" : 5123,
            "count" : 3264,
            "type" : "SCALAR"
        }
    ],
    "bufferViews" : [
        {
            "buffer" : 0,
            "byteLength" : 1296,
            "byteOffset" : 0
        },
        {
            "buffer" : 0,
            "byteLength" : 1296,
            "byteOffset" : 1296
        },
        {
            "buffer" : 0,
            "byteLength" : 864,
            "byteOffset" : 2592
        },
        {
            "buffer" : 0,
            "byteLength" : 432,
            "byteOffset" : 3456
        },
        {
            "buffer" : 0,
            "byteLength" : 1728,
            "byteOffset" : 3888
        },
        {
            "buffer" : 0,
            "byteLength" : 408,
            "byteOffset" : 5616
        },
        {
            "buffer" : 0,
            "byteLength" : 1152,
            "byteOffset" : 6024
        },
        {
            "buffer" : 0,
            "byteLength" : 6708,
            "byteOffset" : 7176
        },
        {
            "buffer" : 0,
            "byteLength" : 6708,
            "byteOffset" : 13884
        },
        {
            "buffer" : 0,
            "byteLength" : 4472,
            "byteOffset" : 20592
        },
        {
            "buffer" : 0,
            "byteLength" : 2236,
            "byteOffset" : 25064
        },
        {
            "buffer" : 0,
            "byteLength" : 8944,
            "byteOffset" : 27300
        },
        {
            "buffer" : 0,
            "byteLength" : 5760,
            "byteOffset" : 36244
        },
        {
            "buffer" : 0,
            "byteLength" : 1152,
            "byteOffset" : 42004
        },
        {
            "buffer" : 0,
            "byteLength" : 1152,
            "byteOffset" : 43156
        },
        {
            "buffer" : 0,
            "byteLength" : 768,
            "byteOffset" : 44308
        },
        {
            "buffer" : 0,
            "byteLength" : 360,
            "byteOffset" : 45076
        },
        {
            "buffer" : 0,
            "byteLength" : 6708,
            "byteOffset" : 45436
        },
        {
            "buffer" : 0,
            "byteLength" : 6708,
            "byteOffset" : 52144
        },
        {
            "buffer" : 0,
            "byteLength" : 4472,
            "byteOffset" : 58852
        },
        {
            "buffer" : 0,
            "byteLength" : 5760,
            "byteOffset" : 63324
        },
        {
            "buffer" : 0,
            "byteLength" : 7500,
            "byteOffset" : 69084
        },
        {
            "buffer" : 0,
            "byteLength" : 7500,
            "byteOffset" : 76584
        },
        {
            "buffer" : 0,
            "byteLength" : 5000,
            "byteOffset" : 84084
        },
        {
            "buffer" : 0,
            "byteLength" : 2500,
            "byteOffset" : 89084
        },
        {
            "buffer" : 0,
            "byteLength" : 10000,
            "byteOffset" : 91584
        },
        {
            "buffer" : 0,
            "byteLength" : 6528,
            "byteOffset" : 101584
        }
    ],
    "buffers" : [
        {
            "byteLength" : 108112,
            "uri" : "data:application/octet-stream;base64,"
        }
    ]
}
